<mxfile host="app.diagrams.net" modified="2021-12-08T13:22:40.018Z" agent="5.0 (Macintosh; Intel Mac OS X 10_15_7) AppleWebKit/537.36 (KHTML, like Gecko) Chrome/96.0.4664.55 Safari/537.36" etag="kqkNfmetKDdBZpqNJPsH" version="15.8.8" type="github">
  <diagram id="C5RBs43oDa-KdzZeNtuy" name="Page-1">
    <mxGraphModel dx="1854" dy="1191" grid="1" gridSize="10" guides="1" tooltips="1" connect="1" arrows="1" fold="1" page="1" pageScale="1" pageWidth="827" pageHeight="1169" math="0" shadow="0">
      <root>
        <mxCell id="WIyWlLk6GJQsqaUBKTNV-0" />
        <mxCell id="WIyWlLk6GJQsqaUBKTNV-1" parent="WIyWlLk6GJQsqaUBKTNV-0" />
        <mxCell id="WIyWlLk6GJQsqaUBKTNV-2" value="" style="rounded=0;html=1;jettySize=auto;orthogonalLoop=1;fontSize=11;endArrow=block;endFill=0;endSize=8;strokeWidth=1;shadow=0;labelBackgroundColor=none;edgeStyle=orthogonalEdgeStyle;entryX=0.5;entryY=0;entryDx=0;entryDy=0;" parent="WIyWlLk6GJQsqaUBKTNV-1" source="WIyWlLk6GJQsqaUBKTNV-3" target="Toa8bJAQONpsRSG5JDjS-0" edge="1">
          <mxGeometry relative="1" as="geometry">
            <mxPoint x="220" y="170" as="targetPoint" />
          </mxGeometry>
        </mxCell>
        <mxCell id="Toa8bJAQONpsRSG5JDjS-1" style="edgeStyle=orthogonalEdgeStyle;rounded=0;orthogonalLoop=1;jettySize=auto;html=1;exitX=0.5;exitY=1;exitDx=0;exitDy=0;entryX=0.5;entryY=0;entryDx=0;entryDy=0;" parent="WIyWlLk6GJQsqaUBKTNV-1" source="Toa8bJAQONpsRSG5JDjS-0" target="WIyWlLk6GJQsqaUBKTNV-7" edge="1">
          <mxGeometry relative="1" as="geometry" />
        </mxCell>
        <mxCell id="Toa8bJAQONpsRSG5JDjS-18" style="edgeStyle=orthogonalEdgeStyle;rounded=0;orthogonalLoop=1;jettySize=auto;html=1;exitX=0.25;exitY=1;exitDx=0;exitDy=0;entryX=0.5;entryY=0;entryDx=0;entryDy=0;" parent="WIyWlLk6GJQsqaUBKTNV-1" source="Toa8bJAQONpsRSG5JDjS-2" target="Toa8bJAQONpsRSG5JDjS-5" edge="1">
          <mxGeometry relative="1" as="geometry" />
        </mxCell>
        <mxCell id="Toa8bJAQONpsRSG5JDjS-21" style="edgeStyle=orthogonalEdgeStyle;rounded=0;orthogonalLoop=1;jettySize=auto;html=1;exitX=0.75;exitY=1;exitDx=0;exitDy=0;entryX=0.5;entryY=0;entryDx=0;entryDy=0;" parent="WIyWlLk6GJQsqaUBKTNV-1" source="Toa8bJAQONpsRSG5JDjS-2" target="Toa8bJAQONpsRSG5JDjS-20" edge="1">
          <mxGeometry relative="1" as="geometry" />
        </mxCell>
        <mxCell id="Toa8bJAQONpsRSG5JDjS-2" value="前端需求验收" style="rounded=1;whiteSpace=wrap;html=1;" parent="WIyWlLk6GJQsqaUBKTNV-1" vertex="1">
          <mxGeometry x="500" y="330" width="260" height="30" as="geometry" />
        </mxCell>
        <mxCell id="Toa8bJAQONpsRSG5JDjS-8" value="标准输入" style="swimlane;" parent="WIyWlLk6GJQsqaUBKTNV-1" vertex="1">
          <mxGeometry x="20" y="10" width="130" height="1140" as="geometry" />
        </mxCell>
        <mxCell id="Toa8bJAQONpsRSG5JDjS-48" value="UI+UX+Data&amp;nbsp;&lt;br&gt;自测报告&lt;br&gt;验收标准&lt;br&gt;视觉&lt;br&gt;prd" style="text;html=1;strokeColor=none;fillColor=none;align=center;verticalAlign=middle;whiteSpace=wrap;rounded=0;dashed=1;dashPattern=1 1;fontColor=#FF4A08;" parent="Toa8bJAQONpsRSG5JDjS-8" vertex="1">
          <mxGeometry x="20" y="240" width="60" height="50" as="geometry" />
        </mxCell>
        <mxCell id="Toa8bJAQONpsRSG5JDjS-66" value="PRD&lt;br&gt;视觉稿" style="text;html=1;strokeColor=none;fillColor=none;align=center;verticalAlign=middle;whiteSpace=wrap;rounded=0;dashed=1;dashPattern=1 1;" parent="Toa8bJAQONpsRSG5JDjS-8" vertex="1">
          <mxGeometry x="30" y="40" width="60" height="30" as="geometry" />
        </mxCell>
        <mxCell id="Toa8bJAQONpsRSG5JDjS-78" value="" style="endArrow=none;dashed=1;html=1;rounded=0;" parent="Toa8bJAQONpsRSG5JDjS-8" edge="1">
          <mxGeometry width="50" height="50" relative="1" as="geometry">
            <mxPoint y="90" as="sourcePoint" />
            <mxPoint x="1010" y="90" as="targetPoint" />
          </mxGeometry>
        </mxCell>
        <mxCell id="Toa8bJAQONpsRSG5JDjS-80" value="系分文档" style="text;html=1;strokeColor=none;fillColor=none;align=center;verticalAlign=middle;whiteSpace=wrap;rounded=0;dashed=1;dashPattern=1 1;" parent="Toa8bJAQONpsRSG5JDjS-8" vertex="1">
          <mxGeometry x="30" y="100" width="60" height="30" as="geometry" />
        </mxCell>
        <mxCell id="coyyOgCqXM8ooxdJUqRu-25" value="" style="endArrow=none;dashed=1;html=1;rounded=0;" edge="1" parent="Toa8bJAQONpsRSG5JDjS-8">
          <mxGeometry width="50" height="50" relative="1" as="geometry">
            <mxPoint y="810" as="sourcePoint" />
            <mxPoint x="1010" y="810" as="targetPoint" />
          </mxGeometry>
        </mxCell>
        <mxCell id="coyyOgCqXM8ooxdJUqRu-31" value="。。。" style="text;html=1;strokeColor=none;fillColor=none;align=center;verticalAlign=middle;whiteSpace=wrap;rounded=0;dashed=1;dashPattern=1 1;" vertex="1" parent="Toa8bJAQONpsRSG5JDjS-8">
          <mxGeometry x="20" y="1030" width="60" height="30" as="geometry" />
        </mxCell>
        <mxCell id="Toa8bJAQONpsRSG5JDjS-57" value="1、&lt;font color=&quot;#ff0f0f&quot;&gt;调试报告，版本V2&lt;/font&gt;&lt;br&gt;2、aone需求" style="text;html=1;strokeColor=none;fillColor=none;align=left;verticalAlign=middle;whiteSpace=wrap;rounded=0;dashed=1;dashPattern=1 1;" parent="Toa8bJAQONpsRSG5JDjS-8" vertex="1">
          <mxGeometry x="10" y="670" width="130" height="60" as="geometry" />
        </mxCell>
        <mxCell id="coyyOgCqXM8ooxdJUqRu-42" value="&lt;font color=&quot;#ff0f0f&quot;&gt;1、调试报告V4文档&lt;br&gt;2、aone需求&lt;/font&gt;" style="text;html=1;strokeColor=none;fillColor=none;align=left;verticalAlign=middle;whiteSpace=wrap;rounded=0;dashed=1;dashPattern=1 1;" vertex="1" parent="Toa8bJAQONpsRSG5JDjS-8">
          <mxGeometry y="970" width="130" height="60" as="geometry" />
        </mxCell>
        <mxCell id="Toa8bJAQONpsRSG5JDjS-33" value="aone bug" style="text;html=1;strokeColor=none;fillColor=none;align=center;verticalAlign=middle;whiteSpace=wrap;rounded=0;dashed=1;dashPattern=1 1;" parent="Toa8bJAQONpsRSG5JDjS-8" vertex="1">
          <mxGeometry x="30" y="480" width="60" height="30" as="geometry" />
        </mxCell>
        <mxCell id="coyyOgCqXM8ooxdJUqRu-44" value="&lt;font color=&quot;#ff0f0f&quot;&gt;交付文档。版本V3&lt;/font&gt;" style="text;html=1;strokeColor=none;fillColor=none;align=left;verticalAlign=middle;whiteSpace=wrap;rounded=0;dashed=1;dashPattern=1 1;" vertex="1" parent="Toa8bJAQONpsRSG5JDjS-8">
          <mxGeometry x="15" y="820" width="100" height="47" as="geometry" />
        </mxCell>
        <mxCell id="coyyOgCqXM8ooxdJUqRu-46" value="1、页面功能&lt;br&gt;2、测试用例&lt;br&gt;3、&lt;font color=&quot;#ff0f0f&quot;&gt;交付文档，版本V1&lt;/font&gt;" style="text;html=1;strokeColor=none;fillColor=none;align=left;verticalAlign=middle;whiteSpace=wrap;rounded=0;dashed=1;dashPattern=1 1;" vertex="1" parent="Toa8bJAQONpsRSG5JDjS-8">
          <mxGeometry x="15" y="540" width="100" height="47" as="geometry" />
        </mxCell>
        <mxCell id="Toa8bJAQONpsRSG5JDjS-9" value="前端正式" style="swimlane;" parent="WIyWlLk6GJQsqaUBKTNV-1" vertex="1">
          <mxGeometry x="150" y="10" width="150" height="1140" as="geometry" />
        </mxCell>
        <mxCell id="WIyWlLk6GJQsqaUBKTNV-7" value="交付验收+代码CR" style="rounded=1;whiteSpace=wrap;html=1;fontSize=12;glass=0;strokeWidth=1;shadow=0;" parent="Toa8bJAQONpsRSG5JDjS-9" vertex="1">
          <mxGeometry x="10" y="260" width="120" height="30" as="geometry" />
        </mxCell>
        <mxCell id="Toa8bJAQONpsRSG5JDjS-75" value="" style="endArrow=none;dashed=1;html=1;rounded=0;" parent="Toa8bJAQONpsRSG5JDjS-9" edge="1">
          <mxGeometry width="50" height="50" relative="1" as="geometry">
            <mxPoint x="-130" y="590" as="sourcePoint" />
            <mxPoint x="880" y="590" as="targetPoint" />
          </mxGeometry>
        </mxCell>
        <mxCell id="coyyOgCqXM8ooxdJUqRu-16" value="否" style="text;html=1;strokeColor=none;fillColor=none;align=center;verticalAlign=middle;whiteSpace=wrap;rounded=0;" vertex="1" parent="Toa8bJAQONpsRSG5JDjS-9">
          <mxGeometry x="120" y="760" width="60" height="30" as="geometry" />
        </mxCell>
        <mxCell id="Toa8bJAQONpsRSG5JDjS-11" value="服务端" style="swimlane;" parent="WIyWlLk6GJQsqaUBKTNV-1" vertex="1">
          <mxGeometry x="460" y="10" width="190" height="1140" as="geometry" />
        </mxCell>
        <mxCell id="Toa8bJAQONpsRSG5JDjS-6" value="调试存在问题" style="rhombus;whiteSpace=wrap;html=1;" parent="Toa8bJAQONpsRSG5JDjS-11" vertex="1">
          <mxGeometry x="50" y="600" width="100" height="50" as="geometry" />
        </mxCell>
        <mxCell id="Toa8bJAQONpsRSG5JDjS-71" value="" style="endArrow=none;dashed=1;html=1;rounded=0;" parent="Toa8bJAQONpsRSG5JDjS-11" edge="1">
          <mxGeometry width="50" height="50" relative="1" as="geometry">
            <mxPoint x="-440" y="310" as="sourcePoint" />
            <mxPoint x="570" y="310" as="targetPoint" />
          </mxGeometry>
        </mxCell>
        <mxCell id="Toa8bJAQONpsRSG5JDjS-72" value="" style="endArrow=none;dashed=1;html=1;rounded=0;" parent="Toa8bJAQONpsRSG5JDjS-11" edge="1">
          <mxGeometry width="50" height="50" relative="1" as="geometry">
            <mxPoint x="-445" y="380" as="sourcePoint" />
            <mxPoint x="565" y="380" as="targetPoint" />
          </mxGeometry>
        </mxCell>
        <mxCell id="WIyWlLk6GJQsqaUBKTNV-3" value="技术评审" style="rounded=1;whiteSpace=wrap;html=1;fontSize=12;glass=0;strokeWidth=1;shadow=0;" parent="Toa8bJAQONpsRSG5JDjS-11" vertex="1">
          <mxGeometry x="-300" y="40" width="720" height="40" as="geometry" />
        </mxCell>
        <mxCell id="Toa8bJAQONpsRSG5JDjS-5" value="服务端页面调试" style="rounded=1;whiteSpace=wrap;html=1;fontColor=#FF330A;" parent="Toa8bJAQONpsRSG5JDjS-11" vertex="1">
          <mxGeometry x="40" y="545" width="120" height="30" as="geometry" />
        </mxCell>
        <mxCell id="Toa8bJAQONpsRSG5JDjS-16" style="edgeStyle=orthogonalEdgeStyle;rounded=0;orthogonalLoop=1;jettySize=auto;html=1;exitX=0.5;exitY=1;exitDx=0;exitDy=0;entryX=0.5;entryY=0;entryDx=0;entryDy=0;" parent="Toa8bJAQONpsRSG5JDjS-11" source="Toa8bJAQONpsRSG5JDjS-5" target="Toa8bJAQONpsRSG5JDjS-6" edge="1">
          <mxGeometry relative="1" as="geometry" />
        </mxCell>
        <mxCell id="coyyOgCqXM8ooxdJUqRu-11" style="edgeStyle=orthogonalEdgeStyle;rounded=0;orthogonalLoop=1;jettySize=auto;html=1;exitX=0.5;exitY=1;exitDx=0;exitDy=0;entryX=0.5;entryY=0;entryDx=0;entryDy=0;" edge="1" parent="Toa8bJAQONpsRSG5JDjS-11" source="coyyOgCqXM8ooxdJUqRu-8" target="coyyOgCqXM8ooxdJUqRu-10">
          <mxGeometry relative="1" as="geometry" />
        </mxCell>
        <mxCell id="coyyOgCqXM8ooxdJUqRu-8" value="服务端调试" style="rounded=1;whiteSpace=wrap;html=1;" vertex="1" parent="Toa8bJAQONpsRSG5JDjS-11">
          <mxGeometry x="30" y="820" width="110" height="50" as="geometry" />
        </mxCell>
        <mxCell id="coyyOgCqXM8ooxdJUqRu-10" value="调试存在问题" style="rhombus;whiteSpace=wrap;html=1;" vertex="1" parent="Toa8bJAQONpsRSG5JDjS-11">
          <mxGeometry x="35" y="900" width="100" height="50" as="geometry" />
        </mxCell>
        <mxCell id="coyyOgCqXM8ooxdJUqRu-13" value="是" style="text;html=1;strokeColor=none;fillColor=none;align=center;verticalAlign=middle;whiteSpace=wrap;rounded=0;" vertex="1" parent="Toa8bJAQONpsRSG5JDjS-11">
          <mxGeometry y="600" width="60" height="30" as="geometry" />
        </mxCell>
        <mxCell id="coyyOgCqXM8ooxdJUqRu-17" value="否" style="text;html=1;strokeColor=none;fillColor=none;align=center;verticalAlign=middle;whiteSpace=wrap;rounded=0;" vertex="1" parent="Toa8bJAQONpsRSG5JDjS-11">
          <mxGeometry x="55" y="660" width="60" height="30" as="geometry" />
        </mxCell>
        <mxCell id="coyyOgCqXM8ooxdJUqRu-26" value="" style="endArrow=none;dashed=1;html=1;rounded=0;" edge="1" parent="Toa8bJAQONpsRSG5JDjS-11">
          <mxGeometry width="50" height="50" relative="1" as="geometry">
            <mxPoint x="-445" y="880" as="sourcePoint" />
            <mxPoint x="565" y="880" as="targetPoint" />
          </mxGeometry>
        </mxCell>
        <mxCell id="coyyOgCqXM8ooxdJUqRu-28" value="" style="endArrow=none;dashed=1;html=1;rounded=0;" edge="1" parent="Toa8bJAQONpsRSG5JDjS-11">
          <mxGeometry width="50" height="50" relative="1" as="geometry">
            <mxPoint x="-442" y="1040" as="sourcePoint" />
            <mxPoint x="568" y="1040" as="targetPoint" />
          </mxGeometry>
        </mxCell>
        <mxCell id="coyyOgCqXM8ooxdJUqRu-29" value="" style="endArrow=none;dashed=1;html=1;rounded=0;" edge="1" parent="Toa8bJAQONpsRSG5JDjS-11">
          <mxGeometry width="50" height="50" relative="1" as="geometry">
            <mxPoint x="-440" y="1060" as="sourcePoint" />
            <mxPoint x="570" y="1060" as="targetPoint" />
          </mxGeometry>
        </mxCell>
        <mxCell id="Toa8bJAQONpsRSG5JDjS-10" value="前端外包" style="swimlane;" parent="WIyWlLk6GJQsqaUBKTNV-1" vertex="1">
          <mxGeometry x="300" y="10" width="160" height="1140" as="geometry" />
        </mxCell>
        <mxCell id="Toa8bJAQONpsRSG5JDjS-0" value="前端外包开发&lt;br&gt;用例自测" style="rounded=1;whiteSpace=wrap;html=1;" parent="Toa8bJAQONpsRSG5JDjS-10" vertex="1">
          <mxGeometry x="20" y="160" width="120" height="60" as="geometry" />
        </mxCell>
        <mxCell id="Toa8bJAQONpsRSG5JDjS-73" value="" style="endArrow=none;dashed=1;html=1;rounded=0;" parent="Toa8bJAQONpsRSG5JDjS-10" edge="1">
          <mxGeometry width="50" height="50" relative="1" as="geometry">
            <mxPoint x="-275" y="460" as="sourcePoint" />
            <mxPoint x="735" y="460" as="targetPoint" />
          </mxGeometry>
        </mxCell>
        <mxCell id="coyyOgCqXM8ooxdJUqRu-0" value="排期buffer问题跟进" style="rounded=1;whiteSpace=wrap;html=1;" vertex="1" parent="Toa8bJAQONpsRSG5JDjS-10">
          <mxGeometry x="25" y="470" width="110" height="50" as="geometry" />
        </mxCell>
        <mxCell id="Toa8bJAQONpsRSG5JDjS-7" value="批量处理问题，线上调试" style="rounded=1;whiteSpace=wrap;html=1;" parent="Toa8bJAQONpsRSG5JDjS-10" vertex="1">
          <mxGeometry x="10" y="680" width="110" height="50" as="geometry" />
        </mxCell>
        <mxCell id="coyyOgCqXM8ooxdJUqRu-5" value="调试存在问题" style="rhombus;whiteSpace=wrap;html=1;" vertex="1" parent="Toa8bJAQONpsRSG5JDjS-10">
          <mxGeometry x="15" y="760" width="100" height="50" as="geometry" />
        </mxCell>
        <mxCell id="coyyOgCqXM8ooxdJUqRu-7" style="edgeStyle=orthogonalEdgeStyle;rounded=0;orthogonalLoop=1;jettySize=auto;html=1;exitX=0.5;exitY=1;exitDx=0;exitDy=0;entryX=0.5;entryY=0;entryDx=0;entryDy=0;" edge="1" parent="Toa8bJAQONpsRSG5JDjS-10" source="Toa8bJAQONpsRSG5JDjS-7" target="coyyOgCqXM8ooxdJUqRu-5">
          <mxGeometry relative="1" as="geometry" />
        </mxCell>
        <mxCell id="coyyOgCqXM8ooxdJUqRu-14" value="是" style="text;html=1;strokeColor=none;fillColor=none;align=center;verticalAlign=middle;whiteSpace=wrap;rounded=0;" vertex="1" parent="Toa8bJAQONpsRSG5JDjS-10">
          <mxGeometry x="100" y="750" width="60" height="30" as="geometry" />
        </mxCell>
        <mxCell id="coyyOgCqXM8ooxdJUqRu-22" value="批量处理，线上调试" style="rounded=1;whiteSpace=wrap;html=1;" vertex="1" parent="Toa8bJAQONpsRSG5JDjS-10">
          <mxGeometry x="20" y="970" width="110" height="50" as="geometry" />
        </mxCell>
        <mxCell id="coyyOgCqXM8ooxdJUqRu-27" value="" style="endArrow=none;dashed=1;html=1;rounded=0;" edge="1" parent="Toa8bJAQONpsRSG5JDjS-10">
          <mxGeometry width="50" height="50" relative="1" as="geometry">
            <mxPoint x="-280" y="960" as="sourcePoint" />
            <mxPoint x="730" y="960" as="targetPoint" />
          </mxGeometry>
        </mxCell>
        <mxCell id="coyyOgCqXM8ooxdJUqRu-30" value="。。。" style="text;html=1;strokeColor=none;fillColor=none;align=center;verticalAlign=middle;whiteSpace=wrap;rounded=0;dashed=1;dashPattern=1 1;" vertex="1" parent="Toa8bJAQONpsRSG5JDjS-10">
          <mxGeometry x="48" y="1034" width="60" height="30" as="geometry" />
        </mxCell>
        <mxCell id="Toa8bJAQONpsRSG5JDjS-12" value="交互" style="swimlane;" parent="WIyWlLk6GJQsqaUBKTNV-1" vertex="1">
          <mxGeometry x="650" y="10" width="130" height="1140" as="geometry" />
        </mxCell>
        <mxCell id="Toa8bJAQONpsRSG5JDjS-20" value="存在交互问题" style="rhombus;whiteSpace=wrap;html=1;" parent="Toa8bJAQONpsRSG5JDjS-12" vertex="1">
          <mxGeometry x="10" y="390" width="100" height="50" as="geometry" />
        </mxCell>
        <mxCell id="Toa8bJAQONpsRSG5JDjS-76" value="" style="endArrow=none;dashed=1;html=1;rounded=0;" parent="Toa8bJAQONpsRSG5JDjS-12" edge="1">
          <mxGeometry width="50" height="50" relative="1" as="geometry">
            <mxPoint x="-641" y="660" as="sourcePoint" />
            <mxPoint x="369" y="660" as="targetPoint" />
          </mxGeometry>
        </mxCell>
        <mxCell id="coyyOgCqXM8ooxdJUqRu-3" value="" style="endArrow=none;dashed=1;html=1;rounded=0;" edge="1" parent="Toa8bJAQONpsRSG5JDjS-12">
          <mxGeometry width="50" height="50" relative="1" as="geometry">
            <mxPoint x="-640" y="740" as="sourcePoint" />
            <mxPoint x="370" y="740" as="targetPoint" />
          </mxGeometry>
        </mxCell>
        <mxCell id="coyyOgCqXM8ooxdJUqRu-12" value="是" style="text;html=1;strokeColor=none;fillColor=none;align=center;verticalAlign=middle;whiteSpace=wrap;rounded=0;" vertex="1" parent="Toa8bJAQONpsRSG5JDjS-12">
          <mxGeometry x="40" y="440" width="60" height="30" as="geometry" />
        </mxCell>
        <mxCell id="Toa8bJAQONpsRSG5JDjS-74" value="" style="endArrow=none;dashed=1;html=1;rounded=0;" parent="Toa8bJAQONpsRSG5JDjS-12" edge="1">
          <mxGeometry width="50" height="50" relative="1" as="geometry">
            <mxPoint x="-620" y="530" as="sourcePoint" />
            <mxPoint x="390" y="530" as="targetPoint" />
          </mxGeometry>
        </mxCell>
        <mxCell id="Toa8bJAQONpsRSG5JDjS-14" style="edgeStyle=orthogonalEdgeStyle;rounded=0;orthogonalLoop=1;jettySize=auto;html=1;exitX=0.5;exitY=1;exitDx=0;exitDy=0;entryX=0;entryY=0.5;entryDx=0;entryDy=0;" parent="WIyWlLk6GJQsqaUBKTNV-1" source="WIyWlLk6GJQsqaUBKTNV-7" target="Toa8bJAQONpsRSG5JDjS-2" edge="1">
          <mxGeometry relative="1" as="geometry" />
        </mxCell>
        <mxCell id="Toa8bJAQONpsRSG5JDjS-17" value="标准输出" style="swimlane;" parent="WIyWlLk6GJQsqaUBKTNV-1" vertex="1">
          <mxGeometry x="910" y="10" width="135" height="1140" as="geometry" />
        </mxCell>
        <mxCell id="Toa8bJAQONpsRSG5JDjS-24" value="UI+UX+Data&lt;br&gt;自测报告" style="text;html=1;strokeColor=none;fillColor=none;align=center;verticalAlign=middle;whiteSpace=wrap;rounded=0;fontColor=#FF370F;" parent="Toa8bJAQONpsRSG5JDjS-17" vertex="1">
          <mxGeometry x="30" y="170" width="60" height="30" as="geometry" />
        </mxCell>
        <mxCell id="Toa8bJAQONpsRSG5JDjS-35" value="&lt;div style=&quot;text-align: left&quot;&gt;&lt;span&gt;前端不符合文档：aone bug&lt;/span&gt;&lt;/div&gt;&lt;div style=&quot;text-align: left&quot;&gt;&lt;span&gt;前端符合文档：&lt;/span&gt;&lt;/div&gt;&lt;div style=&quot;text-align: left&quot;&gt;&lt;span&gt;aone需求&lt;/span&gt;&lt;/div&gt;" style="text;html=1;strokeColor=none;fillColor=none;align=center;verticalAlign=middle;whiteSpace=wrap;rounded=0;dashed=1;dashPattern=1 1;" parent="Toa8bJAQONpsRSG5JDjS-17" vertex="1">
          <mxGeometry x="20" y="530" width="90" height="70" as="geometry" />
        </mxCell>
        <mxCell id="Toa8bJAQONpsRSG5JDjS-47" value="UI+UX+Data+CR" style="text;html=1;strokeColor=none;fillColor=none;align=center;verticalAlign=middle;whiteSpace=wrap;rounded=0;dashed=1;dashPattern=1 1;" parent="Toa8bJAQONpsRSG5JDjS-17" vertex="1">
          <mxGeometry x="30" y="250" width="60" height="30" as="geometry" />
        </mxCell>
        <mxCell id="Toa8bJAQONpsRSG5JDjS-67" value="系分文档&lt;br&gt;接口文档" style="text;html=1;strokeColor=none;fillColor=none;align=center;verticalAlign=middle;whiteSpace=wrap;rounded=0;dashed=1;dashPattern=1 1;" parent="Toa8bJAQONpsRSG5JDjS-17" vertex="1">
          <mxGeometry x="20" y="40" width="60" height="30" as="geometry" />
        </mxCell>
        <mxCell id="Toa8bJAQONpsRSG5JDjS-68" value="PRD&lt;br&gt;视觉稿&lt;br&gt;接口文档&lt;br&gt;测试用例" style="text;html=1;strokeColor=none;fillColor=none;align=center;verticalAlign=middle;whiteSpace=wrap;rounded=0;dashed=1;dashPattern=1 1;fontColor=#FF0505;" parent="Toa8bJAQONpsRSG5JDjS-17" vertex="1">
          <mxGeometry x="-860" y="160" width="60" height="50" as="geometry" />
        </mxCell>
        <mxCell id="Toa8bJAQONpsRSG5JDjS-81" value="测试用例" style="text;html=1;strokeColor=none;fillColor=none;align=center;verticalAlign=middle;whiteSpace=wrap;rounded=0;dashed=1;dashPattern=1 1;" parent="Toa8bJAQONpsRSG5JDjS-17" vertex="1">
          <mxGeometry x="25" y="104" width="60" height="30" as="geometry" />
        </mxCell>
        <mxCell id="Toa8bJAQONpsRSG5JDjS-70" value="" style="endArrow=none;dashed=1;html=1;rounded=0;" parent="Toa8bJAQONpsRSG5JDjS-17" edge="1">
          <mxGeometry width="50" height="50" relative="1" as="geometry">
            <mxPoint x="-890" y="230" as="sourcePoint" />
            <mxPoint x="120" y="230" as="targetPoint" />
          </mxGeometry>
        </mxCell>
        <mxCell id="coyyOgCqXM8ooxdJUqRu-43" value="1、页面功能&lt;br&gt;2、测试用例&lt;br&gt;3、交付版本V1" style="text;html=1;strokeColor=none;fillColor=none;align=left;verticalAlign=middle;whiteSpace=wrap;rounded=0;dashed=1;dashPattern=1 1;" vertex="1" parent="Toa8bJAQONpsRSG5JDjS-17">
          <mxGeometry x="5" y="320" width="100" height="47" as="geometry" />
        </mxCell>
        <mxCell id="coyyOgCqXM8ooxdJUqRu-48" value="&lt;font color=&quot;#ff0f0f&quot;&gt;调试报告，版本V2&lt;/font&gt;" style="text;html=1;strokeColor=none;fillColor=none;align=left;verticalAlign=middle;whiteSpace=wrap;rounded=0;dashed=1;dashPattern=1 1;" vertex="1" parent="Toa8bJAQONpsRSG5JDjS-17">
          <mxGeometry x="5" y="600" width="130" height="60" as="geometry" />
        </mxCell>
        <mxCell id="coyyOgCqXM8ooxdJUqRu-49" value="&lt;font color=&quot;#ff0f0f&quot;&gt;调试报告，版本V3&lt;/font&gt;" style="text;html=1;strokeColor=none;fillColor=none;align=left;verticalAlign=middle;whiteSpace=wrap;rounded=0;dashed=1;dashPattern=1 1;" vertex="1" parent="Toa8bJAQONpsRSG5JDjS-17">
          <mxGeometry x="5" y="890" width="130" height="60" as="geometry" />
        </mxCell>
        <mxCell id="Toa8bJAQONpsRSG5JDjS-39" value="测试" style="swimlane;" parent="WIyWlLk6GJQsqaUBKTNV-1" vertex="1">
          <mxGeometry x="780" y="10" width="130" height="1140" as="geometry" />
        </mxCell>
        <mxCell id="Toa8bJAQONpsRSG5JDjS-49" value="1、页面功能&lt;br&gt;2、测试用例&lt;br&gt;3、交付版本V1" style="text;html=1;strokeColor=none;fillColor=none;align=left;verticalAlign=middle;whiteSpace=wrap;rounded=0;dashed=1;dashPattern=1 1;" parent="Toa8bJAQONpsRSG5JDjS-39" vertex="1">
          <mxGeometry x="-740" y="323" width="100" height="47" as="geometry" />
        </mxCell>
        <mxCell id="Toa8bJAQONpsRSG5JDjS-77" value="产出用例" style="rounded=1;whiteSpace=wrap;html=1;dashed=1;dashPattern=1 1;align=center;" parent="Toa8bJAQONpsRSG5JDjS-39" vertex="1">
          <mxGeometry x="10" y="96" width="90" height="40" as="geometry" />
        </mxCell>
        <mxCell id="Toa8bJAQONpsRSG5JDjS-53" style="edgeStyle=orthogonalEdgeStyle;rounded=0;orthogonalLoop=1;jettySize=auto;html=1;exitX=0.5;exitY=1;exitDx=0;exitDy=0;" parent="WIyWlLk6GJQsqaUBKTNV-1" source="Toa8bJAQONpsRSG5JDjS-6" target="Toa8bJAQONpsRSG5JDjS-43" edge="1">
          <mxGeometry relative="1" as="geometry">
            <Array as="points">
              <mxPoint x="560" y="680" />
              <mxPoint x="620" y="680" />
            </Array>
          </mxGeometry>
        </mxCell>
        <mxCell id="Toa8bJAQONpsRSG5JDjS-69" value="" style="endArrow=none;dashed=1;html=1;rounded=0;" parent="WIyWlLk6GJQsqaUBKTNV-1" edge="1">
          <mxGeometry width="50" height="50" relative="1" as="geometry">
            <mxPoint x="20" y="160" as="sourcePoint" />
            <mxPoint x="1030" y="160" as="targetPoint" />
          </mxGeometry>
        </mxCell>
        <mxCell id="Toa8bJAQONpsRSG5JDjS-79" style="edgeStyle=orthogonalEdgeStyle;rounded=0;orthogonalLoop=1;jettySize=auto;html=1;exitX=0.75;exitY=1;exitDx=0;exitDy=0;entryX=0;entryY=0.5;entryDx=0;entryDy=0;" parent="WIyWlLk6GJQsqaUBKTNV-1" source="WIyWlLk6GJQsqaUBKTNV-3" target="Toa8bJAQONpsRSG5JDjS-77" edge="1">
          <mxGeometry relative="1" as="geometry" />
        </mxCell>
        <mxCell id="Toa8bJAQONpsRSG5JDjS-83" value="PRD&lt;br&gt;视觉稿&lt;br&gt;接口文档&lt;br&gt;测试用例" style="ellipse;whiteSpace=wrap;html=1;dashed=1;dashPattern=1 1;fontColor=#000000;align=center;verticalAlign=top;" parent="WIyWlLk6GJQsqaUBKTNV-1" vertex="1">
          <mxGeometry x="1241" y="220" width="240" height="170" as="geometry" />
        </mxCell>
        <mxCell id="Toa8bJAQONpsRSG5JDjS-94" style="edgeStyle=orthogonalEdgeStyle;rounded=0;orthogonalLoop=1;jettySize=auto;html=1;exitX=0.5;exitY=1;exitDx=0;exitDy=0;fontColor=#000000;" parent="WIyWlLk6GJQsqaUBKTNV-1" source="Toa8bJAQONpsRSG5JDjS-84" target="Toa8bJAQONpsRSG5JDjS-86" edge="1">
          <mxGeometry relative="1" as="geometry" />
        </mxCell>
        <mxCell id="Toa8bJAQONpsRSG5JDjS-84" value="打开页面、安装插件抓取接口" style="rounded=1;whiteSpace=wrap;html=1;dashed=1;dashPattern=1 1;fontColor=#000000;align=center;" parent="WIyWlLk6GJQsqaUBKTNV-1" vertex="1">
          <mxGeometry x="1300" y="410" width="120" height="60" as="geometry" />
        </mxCell>
        <mxCell id="Toa8bJAQONpsRSG5JDjS-95" style="edgeStyle=orthogonalEdgeStyle;rounded=0;orthogonalLoop=1;jettySize=auto;html=1;exitX=0.5;exitY=1;exitDx=0;exitDy=0;fontColor=#000000;" parent="WIyWlLk6GJQsqaUBKTNV-1" source="Toa8bJAQONpsRSG5JDjS-85" target="Toa8bJAQONpsRSG5JDjS-84" edge="1">
          <mxGeometry relative="1" as="geometry" />
        </mxCell>
        <mxCell id="Toa8bJAQONpsRSG5JDjS-85" value="2.需求开发" style="ellipse;whiteSpace=wrap;html=1;dashed=1;dashPattern=1 1;fontColor=#000000;align=center;" parent="WIyWlLk6GJQsqaUBKTNV-1" vertex="1">
          <mxGeometry x="1300" y="300" width="120" height="80" as="geometry" />
        </mxCell>
        <mxCell id="Toa8bJAQONpsRSG5JDjS-90" style="edgeStyle=orthogonalEdgeStyle;rounded=0;orthogonalLoop=1;jettySize=auto;html=1;exitX=0.5;exitY=1;exitDx=0;exitDy=0;fontColor=#000000;" parent="WIyWlLk6GJQsqaUBKTNV-1" source="Toa8bJAQONpsRSG5JDjS-86" target="Toa8bJAQONpsRSG5JDjS-88" edge="1">
          <mxGeometry relative="1" as="geometry" />
        </mxCell>
        <mxCell id="Toa8bJAQONpsRSG5JDjS-91" style="edgeStyle=orthogonalEdgeStyle;rounded=0;orthogonalLoop=1;jettySize=auto;html=1;exitX=1;exitY=0.5;exitDx=0;exitDy=0;fontColor=#000000;" parent="WIyWlLk6GJQsqaUBKTNV-1" source="Toa8bJAQONpsRSG5JDjS-86" target="Toa8bJAQONpsRSG5JDjS-87" edge="1">
          <mxGeometry relative="1" as="geometry" />
        </mxCell>
        <mxCell id="Toa8bJAQONpsRSG5JDjS-86" value="是否新接口" style="rhombus;whiteSpace=wrap;html=1;dashed=1;dashPattern=1 1;fontColor=#000000;align=center;" parent="WIyWlLk6GJQsqaUBKTNV-1" vertex="1">
          <mxGeometry x="1290" y="515" width="160" height="80" as="geometry" />
        </mxCell>
        <mxCell id="Toa8bJAQONpsRSG5JDjS-93" style="edgeStyle=orthogonalEdgeStyle;rounded=0;orthogonalLoop=1;jettySize=auto;html=1;exitX=0.5;exitY=1;exitDx=0;exitDy=0;fontColor=#000000;entryX=0.5;entryY=0;entryDx=0;entryDy=0;" parent="WIyWlLk6GJQsqaUBKTNV-1" source="Toa8bJAQONpsRSG5JDjS-87" target="Toa8bJAQONpsRSG5JDjS-109" edge="1">
          <mxGeometry relative="1" as="geometry">
            <mxPoint x="1420" y="770" as="targetPoint" />
          </mxGeometry>
        </mxCell>
        <mxCell id="Toa8bJAQONpsRSG5JDjS-87" value="3.2 创建接口" style="rounded=1;whiteSpace=wrap;html=1;dashed=1;dashPattern=1 1;fontColor=#000000;align=center;" parent="WIyWlLk6GJQsqaUBKTNV-1" vertex="1">
          <mxGeometry x="1430" y="640" width="120" height="60" as="geometry" />
        </mxCell>
        <mxCell id="Toa8bJAQONpsRSG5JDjS-92" style="edgeStyle=orthogonalEdgeStyle;rounded=0;orthogonalLoop=1;jettySize=auto;html=1;exitX=0.5;exitY=1;exitDx=0;exitDy=0;entryX=0.5;entryY=0;entryDx=0;entryDy=0;fontColor=#000000;" parent="WIyWlLk6GJQsqaUBKTNV-1" source="Toa8bJAQONpsRSG5JDjS-88" target="Toa8bJAQONpsRSG5JDjS-109" edge="1">
          <mxGeometry relative="1" as="geometry">
            <mxPoint x="1420" y="760" as="targetPoint" />
            <Array as="points">
              <mxPoint x="1310" y="740" />
              <mxPoint x="1415" y="740" />
            </Array>
          </mxGeometry>
        </mxCell>
        <mxCell id="Toa8bJAQONpsRSG5JDjS-88" value="3.1 已有接口新建变更" style="rounded=1;whiteSpace=wrap;html=1;dashed=1;dashPattern=1 1;fontColor=#000000;align=center;" parent="WIyWlLk6GJQsqaUBKTNV-1" vertex="1">
          <mxGeometry x="1250" y="640" width="120" height="60" as="geometry" />
        </mxCell>
        <mxCell id="Toa8bJAQONpsRSG5JDjS-99" style="edgeStyle=orthogonalEdgeStyle;rounded=0;orthogonalLoop=1;jettySize=auto;html=1;exitX=0.5;exitY=1;exitDx=0;exitDy=0;fontColor=#000000;" parent="WIyWlLk6GJQsqaUBKTNV-1" source="Toa8bJAQONpsRSG5JDjS-97" target="Toa8bJAQONpsRSG5JDjS-98" edge="1">
          <mxGeometry relative="1" as="geometry" />
        </mxCell>
        <mxCell id="Toa8bJAQONpsRSG5JDjS-97" value="响应编辑" style="rounded=1;whiteSpace=wrap;html=1;dashed=1;dashPattern=1 1;fontColor=#000000;align=center;verticalAlign=middle;" parent="WIyWlLk6GJQsqaUBKTNV-1" vertex="1">
          <mxGeometry x="1330" y="1340" width="170" height="30" as="geometry" />
        </mxCell>
        <mxCell id="Toa8bJAQONpsRSG5JDjS-101" style="edgeStyle=orthogonalEdgeStyle;rounded=0;orthogonalLoop=1;jettySize=auto;html=1;exitX=0.5;exitY=1;exitDx=0;exitDy=0;fontColor=#000000;entryX=0.5;entryY=0;entryDx=0;entryDy=0;" parent="WIyWlLk6GJQsqaUBKTNV-1" source="Toa8bJAQONpsRSG5JDjS-98" target="Toa8bJAQONpsRSG5JDjS-112" edge="1">
          <mxGeometry relative="1" as="geometry">
            <mxPoint x="1300.0000000000005" y="1520" as="targetPoint" />
          </mxGeometry>
        </mxCell>
        <mxCell id="Toa8bJAQONpsRSG5JDjS-104" style="edgeStyle=orthogonalEdgeStyle;rounded=0;orthogonalLoop=1;jettySize=auto;html=1;exitX=1;exitY=0.5;exitDx=0;exitDy=0;entryX=0;entryY=0.5;entryDx=0;entryDy=0;fontColor=#000000;" parent="WIyWlLk6GJQsqaUBKTNV-1" source="Toa8bJAQONpsRSG5JDjS-98" target="Toa8bJAQONpsRSG5JDjS-103" edge="1">
          <mxGeometry relative="1" as="geometry" />
        </mxCell>
        <mxCell id="Toa8bJAQONpsRSG5JDjS-98" value="简单查询" style="rhombus;whiteSpace=wrap;html=1;dashed=1;dashPattern=1 1;fontColor=#000000;align=center;verticalAlign=middle;" parent="WIyWlLk6GJQsqaUBKTNV-1" vertex="1">
          <mxGeometry x="1290" y="1430" width="100" height="40" as="geometry" />
        </mxCell>
        <mxCell id="coyyOgCqXM8ooxdJUqRu-60" style="edgeStyle=orthogonalEdgeStyle;rounded=0;orthogonalLoop=1;jettySize=auto;html=1;exitX=0.5;exitY=1;exitDx=0;exitDy=0;fontColor=#FF0F0F;" edge="1" parent="WIyWlLk6GJQsqaUBKTNV-1" source="Toa8bJAQONpsRSG5JDjS-103" target="Toa8bJAQONpsRSG5JDjS-107">
          <mxGeometry relative="1" as="geometry" />
        </mxCell>
        <mxCell id="Toa8bJAQONpsRSG5JDjS-103" value="接口增删改场景" style="rounded=1;whiteSpace=wrap;html=1;dashed=1;dashPattern=1 1;fontColor=#000000;align=center;verticalAlign=middle;" parent="WIyWlLk6GJQsqaUBKTNV-1" vertex="1">
          <mxGeometry x="1460" y="1430" width="120" height="40" as="geometry" />
        </mxCell>
        <mxCell id="Toa8bJAQONpsRSG5JDjS-115" style="edgeStyle=orthogonalEdgeStyle;rounded=0;orthogonalLoop=1;jettySize=auto;html=1;exitX=0;exitY=0.5;exitDx=0;exitDy=0;fontColor=#000000;entryX=0.5;entryY=0;entryDx=0;entryDy=0;" parent="WIyWlLk6GJQsqaUBKTNV-1" source="Toa8bJAQONpsRSG5JDjS-107" target="Toa8bJAQONpsRSG5JDjS-112" edge="1">
          <mxGeometry relative="1" as="geometry">
            <mxPoint x="1420" y="1790.0000000000002" as="targetPoint" />
          </mxGeometry>
        </mxCell>
        <mxCell id="Toa8bJAQONpsRSG5JDjS-114" style="edgeStyle=orthogonalEdgeStyle;rounded=0;orthogonalLoop=1;jettySize=auto;html=1;exitX=0.5;exitY=1;exitDx=0;exitDy=0;fontColor=#000000;entryX=0.5;entryY=0;entryDx=0;entryDy=0;" parent="WIyWlLk6GJQsqaUBKTNV-1" source="Toa8bJAQONpsRSG5JDjS-108" target="Toa8bJAQONpsRSG5JDjS-112" edge="1">
          <mxGeometry relative="1" as="geometry">
            <mxPoint x="1420" y="1790.0000000000002" as="targetPoint" />
          </mxGeometry>
        </mxCell>
        <mxCell id="coyyOgCqXM8ooxdJUqRu-57" style="edgeStyle=orthogonalEdgeStyle;rounded=0;orthogonalLoop=1;jettySize=auto;html=1;exitX=0.5;exitY=1;exitDx=0;exitDy=0;entryX=0.5;entryY=0;entryDx=0;entryDy=0;fontColor=#FF0F0F;" edge="1" parent="WIyWlLk6GJQsqaUBKTNV-1" source="Toa8bJAQONpsRSG5JDjS-109" target="coyyOgCqXM8ooxdJUqRu-53">
          <mxGeometry relative="1" as="geometry" />
        </mxCell>
        <mxCell id="Toa8bJAQONpsRSG5JDjS-109" value="4. 编辑接口" style="rounded=1;whiteSpace=wrap;html=1;dashed=1;dashPattern=1 1;fontColor=#000000;align=center;verticalAlign=middle;" parent="WIyWlLk6GJQsqaUBKTNV-1" vertex="1">
          <mxGeometry x="1330" y="780" width="170" height="30" as="geometry" />
        </mxCell>
        <mxCell id="Toa8bJAQONpsRSG5JDjS-163" value="" style="edgeStyle=orthogonalEdgeStyle;rounded=0;orthogonalLoop=1;jettySize=auto;html=1;fontColor=#FF0F0F;entryX=0.5;entryY=0;entryDx=0;entryDy=0;" parent="WIyWlLk6GJQsqaUBKTNV-1" source="Toa8bJAQONpsRSG5JDjS-112" target="Toa8bJAQONpsRSG5JDjS-164" edge="1">
          <mxGeometry relative="1" as="geometry">
            <mxPoint x="1420" y="1740" as="targetPoint" />
          </mxGeometry>
        </mxCell>
        <mxCell id="Toa8bJAQONpsRSG5JDjS-112" value="完成接口编辑" style="rounded=1;whiteSpace=wrap;html=1;dashed=1;dashPattern=1 1;fontColor=#000000;align=center;verticalAlign=middle;" parent="WIyWlLk6GJQsqaUBKTNV-1" vertex="1">
          <mxGeometry x="1320" y="1690" width="170" height="30" as="geometry" />
        </mxCell>
        <mxCell id="Toa8bJAQONpsRSG5JDjS-118" value="" style="edgeStyle=orthogonalEdgeStyle;rounded=0;orthogonalLoop=1;jettySize=auto;html=1;fontColor=#000000;" parent="WIyWlLk6GJQsqaUBKTNV-1" source="Toa8bJAQONpsRSG5JDjS-116" target="Toa8bJAQONpsRSG5JDjS-117" edge="1">
          <mxGeometry relative="1" as="geometry" />
        </mxCell>
        <mxCell id="Toa8bJAQONpsRSG5JDjS-121" style="edgeStyle=orthogonalEdgeStyle;rounded=0;orthogonalLoop=1;jettySize=auto;html=1;exitX=1;exitY=0.5;exitDx=0;exitDy=0;fontColor=#000000;" parent="WIyWlLk6GJQsqaUBKTNV-1" source="Toa8bJAQONpsRSG5JDjS-116" target="Toa8bJAQONpsRSG5JDjS-97" edge="1">
          <mxGeometry relative="1" as="geometry">
            <mxPoint x="1500" y="1290" as="targetPoint" />
            <Array as="points">
              <mxPoint x="1520" y="1130" />
              <mxPoint x="1520" y="1270" />
              <mxPoint x="1415" y="1270" />
            </Array>
          </mxGeometry>
        </mxCell>
        <mxCell id="Toa8bJAQONpsRSG5JDjS-116" value="接口响应是否依赖特定请求参数" style="rhombus;whiteSpace=wrap;html=1;dashed=1;dashPattern=1 1;fontColor=#000000;align=center;verticalAlign=middle;" parent="WIyWlLk6GJQsqaUBKTNV-1" vertex="1">
          <mxGeometry x="1330" y="1100" width="170" height="60" as="geometry" />
        </mxCell>
        <mxCell id="Toa8bJAQONpsRSG5JDjS-122" style="edgeStyle=orthogonalEdgeStyle;rounded=0;orthogonalLoop=1;jettySize=auto;html=1;exitX=0.5;exitY=1;exitDx=0;exitDy=0;fontColor=#000000;" parent="WIyWlLk6GJQsqaUBKTNV-1" source="Toa8bJAQONpsRSG5JDjS-117" edge="1">
          <mxGeometry relative="1" as="geometry">
            <mxPoint x="1414.666666666667" y="1340" as="targetPoint" />
          </mxGeometry>
        </mxCell>
        <mxCell id="Toa8bJAQONpsRSG5JDjS-117" value="针对特定请求参数响应数据" style="whiteSpace=wrap;html=1;dashed=1;dashPattern=1 1;fontColor=#000000;" parent="WIyWlLk6GJQsqaUBKTNV-1" vertex="1">
          <mxGeometry x="1355" y="1190" width="120" height="60" as="geometry" />
        </mxCell>
        <mxCell id="Toa8bJAQONpsRSG5JDjS-124" value="3.新建变更" style="swimlane;horizontal=0;dashed=1;dashPattern=1 1;fontColor=#000000;align=center;verticalAlign=middle;" parent="WIyWlLk6GJQsqaUBKTNV-1" vertex="1">
          <mxGeometry x="1180" y="500" width="990" height="260" as="geometry" />
        </mxCell>
        <mxCell id="Toa8bJAQONpsRSG5JDjS-129" value="&lt;h1&gt;&lt;b style=&quot;font-size: 12px&quot;&gt;已有接口上迭代：&lt;/b&gt;&lt;span style=&quot;font-size: 12px ; font-weight: normal&quot;&gt;已有接口上创建变更在开发中占比80%，通过自动化抓取后，&lt;font color=&quot;#ff4a08&quot;&gt;高效&lt;/font&gt;实现接口mock。同一接口支持多种变更，解决同一接口返回测试不同响应。对应常见场景如正常的数据返回和异常数据报错。&lt;/span&gt;&lt;b style=&quot;font-size: 12px&quot;&gt;&lt;br&gt;&lt;/b&gt;&lt;/h1&gt;&lt;h1&gt;&lt;b style=&quot;font-size: 12px&quot;&gt;新建接口：&lt;/b&gt;&lt;span style=&quot;font-size: 12px ; font-weight: 400&quot;&gt;基于接口文档，前端录入mock数据。&lt;/span&gt;&lt;br&gt;&lt;/h1&gt;" style="text;html=1;strokeColor=none;fillColor=none;spacing=5;spacingTop=-20;whiteSpace=wrap;overflow=hidden;rounded=0;dashed=1;dashPattern=1 1;fontColor=#000000;align=left;verticalAlign=top;" parent="Toa8bJAQONpsRSG5JDjS-124" vertex="1">
          <mxGeometry x="450" y="15" width="490" height="195" as="geometry" />
        </mxCell>
        <mxCell id="Toa8bJAQONpsRSG5JDjS-125" value="4.3 接口多态模拟" style="swimlane;horizontal=0;dashed=1;dashPattern=1 1;fontColor=#000000;align=center;verticalAlign=middle;" parent="WIyWlLk6GJQsqaUBKTNV-1" vertex="1">
          <mxGeometry x="1180" y="1090" width="990" height="210" as="geometry" />
        </mxCell>
        <mxCell id="Toa8bJAQONpsRSG5JDjS-130" value="&lt;h1&gt;&lt;span style=&quot;font-size: 12px&quot;&gt;基于入参不同响应不同出参，支持接口多态的mock。&lt;/span&gt;&lt;/h1&gt;" style="text;html=1;strokeColor=none;fillColor=none;spacing=5;spacingTop=-20;whiteSpace=wrap;overflow=hidden;rounded=0;dashed=1;dashPattern=1 1;fontColor=#000000;align=left;verticalAlign=top;" parent="Toa8bJAQONpsRSG5JDjS-125" vertex="1">
          <mxGeometry x="460" y="15" width="490" height="195" as="geometry" />
        </mxCell>
        <mxCell id="Toa8bJAQONpsRSG5JDjS-126" value="4.4 接口联动模拟" style="swimlane;horizontal=0;dashed=1;dashPattern=1 1;fontColor=#000000;align=center;verticalAlign=middle;" parent="WIyWlLk6GJQsqaUBKTNV-1" vertex="1">
          <mxGeometry x="1170" y="1420" width="1000" height="240" as="geometry" />
        </mxCell>
        <mxCell id="Toa8bJAQONpsRSG5JDjS-161" value="&lt;h1&gt;&lt;span style=&quot;font-size: 12px&quot;&gt;&lt;span style=&quot;font-weight: normal&quot;&gt;接口联动可以完整模拟接口增删改查，保障交互链路走通，前置暴露技术设计问题。&lt;/span&gt;&lt;/span&gt;&lt;/h1&gt;" style="text;html=1;strokeColor=none;fillColor=none;spacing=5;spacingTop=-20;whiteSpace=wrap;overflow=hidden;rounded=0;dashed=1;dashPattern=1 1;fontColor=#000000;align=left;verticalAlign=top;" parent="Toa8bJAQONpsRSG5JDjS-126" vertex="1">
          <mxGeometry x="474" y="10" width="490" height="195" as="geometry" />
        </mxCell>
        <mxCell id="Toa8bJAQONpsRSG5JDjS-107" value="是否存在增删改相关影响的接口" style="rhombus;whiteSpace=wrap;html=1;dashed=1;dashPattern=1 1;fontColor=#000000;align=center;verticalAlign=middle;" parent="Toa8bJAQONpsRSG5JDjS-126" vertex="1">
          <mxGeometry x="290" y="80" width="120" height="80" as="geometry" />
        </mxCell>
        <mxCell id="Toa8bJAQONpsRSG5JDjS-108" value="添加相关接口响应数据的变更" style="rounded=1;whiteSpace=wrap;html=1;dashed=1;dashPattern=1 1;fontColor=#000000;align=center;verticalAlign=middle;" parent="Toa8bJAQONpsRSG5JDjS-126" vertex="1">
          <mxGeometry x="290" y="180" width="120" height="40" as="geometry" />
        </mxCell>
        <mxCell id="Toa8bJAQONpsRSG5JDjS-111" style="edgeStyle=orthogonalEdgeStyle;rounded=0;orthogonalLoop=1;jettySize=auto;html=1;exitX=0.5;exitY=1;exitDx=0;exitDy=0;entryX=0.5;entryY=0;entryDx=0;entryDy=0;fontColor=#000000;" parent="Toa8bJAQONpsRSG5JDjS-126" source="Toa8bJAQONpsRSG5JDjS-107" target="Toa8bJAQONpsRSG5JDjS-108" edge="1">
          <mxGeometry relative="1" as="geometry" />
        </mxCell>
        <mxCell id="Toa8bJAQONpsRSG5JDjS-133" value="" style="edgeStyle=orthogonalEdgeStyle;rounded=0;orthogonalLoop=1;jettySize=auto;html=1;fontColor=#000000;startArrow=none;" parent="WIyWlLk6GJQsqaUBKTNV-1" source="coyyOgCqXM8ooxdJUqRu-67" target="Toa8bJAQONpsRSG5JDjS-132" edge="1">
          <mxGeometry relative="1" as="geometry" />
        </mxCell>
        <mxCell id="coyyOgCqXM8ooxdJUqRu-70" style="edgeStyle=orthogonalEdgeStyle;rounded=0;orthogonalLoop=1;jettySize=auto;html=1;exitX=0.5;exitY=1;exitDx=0;exitDy=0;fontColor=#FF0F0F;" edge="1" parent="WIyWlLk6GJQsqaUBKTNV-1" source="Toa8bJAQONpsRSG5JDjS-131" target="coyyOgCqXM8ooxdJUqRu-67">
          <mxGeometry relative="1" as="geometry" />
        </mxCell>
        <mxCell id="Toa8bJAQONpsRSG5JDjS-131" value="1、前端标准产出：页面、自测报告、交付文档" style="ellipse;whiteSpace=wrap;html=1;dashed=1;dashPattern=1 1;fontColor=#000000;align=center;verticalAlign=middle;" parent="WIyWlLk6GJQsqaUBKTNV-1" vertex="1">
          <mxGeometry x="445" y="2100" width="120" height="70" as="geometry" />
        </mxCell>
        <mxCell id="Toa8bJAQONpsRSG5JDjS-135" value="" style="edgeStyle=orthogonalEdgeStyle;rounded=0;orthogonalLoop=1;jettySize=auto;html=1;fontColor=#000000;" parent="WIyWlLk6GJQsqaUBKTNV-1" source="Toa8bJAQONpsRSG5JDjS-132" target="Toa8bJAQONpsRSG5JDjS-134" edge="1">
          <mxGeometry relative="1" as="geometry" />
        </mxCell>
        <mxCell id="Toa8bJAQONpsRSG5JDjS-132" value="验收通过" style="rhombus;whiteSpace=wrap;html=1;dashed=1;dashPattern=1 1;fontColor=#000000;" parent="WIyWlLk6GJQsqaUBKTNV-1" vertex="1">
          <mxGeometry x="465" y="2340" width="80" height="45" as="geometry" />
        </mxCell>
        <mxCell id="Toa8bJAQONpsRSG5JDjS-137" value="" style="edgeStyle=orthogonalEdgeStyle;rounded=0;orthogonalLoop=1;jettySize=auto;html=1;fontColor=#000000;" parent="WIyWlLk6GJQsqaUBKTNV-1" source="Toa8bJAQONpsRSG5JDjS-134" target="Toa8bJAQONpsRSG5JDjS-136" edge="1">
          <mxGeometry relative="1" as="geometry" />
        </mxCell>
        <mxCell id="Toa8bJAQONpsRSG5JDjS-139" value="" style="edgeStyle=orthogonalEdgeStyle;rounded=0;orthogonalLoop=1;jettySize=auto;html=1;fontColor=#000000;" parent="WIyWlLk6GJQsqaUBKTNV-1" source="Toa8bJAQONpsRSG5JDjS-136" target="Toa8bJAQONpsRSG5JDjS-138" edge="1">
          <mxGeometry relative="1" as="geometry" />
        </mxCell>
        <mxCell id="Toa8bJAQONpsRSG5JDjS-143" value="" style="edgeStyle=orthogonalEdgeStyle;rounded=0;orthogonalLoop=1;jettySize=auto;html=1;fontColor=#000000;" parent="WIyWlLk6GJQsqaUBKTNV-1" source="Toa8bJAQONpsRSG5JDjS-136" target="Toa8bJAQONpsRSG5JDjS-142" edge="1">
          <mxGeometry relative="1" as="geometry" />
        </mxCell>
        <mxCell id="Toa8bJAQONpsRSG5JDjS-136" value="4.1 接口地址、方法是否符合文档" style="rhombus;whiteSpace=wrap;html=1;dashed=1;dashPattern=1 1;fontColor=#000000;" parent="WIyWlLk6GJQsqaUBKTNV-1" vertex="1">
          <mxGeometry x="465" y="2550" width="80" height="60" as="geometry" />
        </mxCell>
        <mxCell id="Toa8bJAQONpsRSG5JDjS-145" style="edgeStyle=orthogonalEdgeStyle;rounded=0;orthogonalLoop=1;jettySize=auto;html=1;exitX=1;exitY=0.5;exitDx=0;exitDy=0;entryX=0;entryY=0.5;entryDx=0;entryDy=0;fontColor=#000000;" parent="WIyWlLk6GJQsqaUBKTNV-1" source="Toa8bJAQONpsRSG5JDjS-138" target="Toa8bJAQONpsRSG5JDjS-144" edge="1">
          <mxGeometry relative="1" as="geometry" />
        </mxCell>
        <mxCell id="coyyOgCqXM8ooxdJUqRu-90" style="edgeStyle=orthogonalEdgeStyle;rounded=0;orthogonalLoop=1;jettySize=auto;html=1;exitX=0.5;exitY=1;exitDx=0;exitDy=0;fontColor=#000000;" edge="1" parent="WIyWlLk6GJQsqaUBKTNV-1" source="Toa8bJAQONpsRSG5JDjS-138">
          <mxGeometry relative="1" as="geometry">
            <mxPoint x="510" y="2820" as="targetPoint" />
          </mxGeometry>
        </mxCell>
        <mxCell id="Toa8bJAQONpsRSG5JDjS-138" value="4.2 前端入参是否正确" style="rhombus;whiteSpace=wrap;html=1;dashed=1;dashPattern=1 1;fontColor=#000000;" parent="WIyWlLk6GJQsqaUBKTNV-1" vertex="1">
          <mxGeometry x="465" y="2710" width="80" height="60" as="geometry" />
        </mxCell>
        <mxCell id="Toa8bJAQONpsRSG5JDjS-140" value="冒烟、提测" style="whiteSpace=wrap;html=1;dashed=1;dashPattern=1 1;fontColor=#000000;" parent="WIyWlLk6GJQsqaUBKTNV-1" vertex="1">
          <mxGeometry x="450" y="3110" width="120" height="60" as="geometry" />
        </mxCell>
        <mxCell id="Toa8bJAQONpsRSG5JDjS-151" style="edgeStyle=orthogonalEdgeStyle;rounded=0;orthogonalLoop=1;jettySize=auto;html=1;exitX=1;exitY=0.5;exitDx=0;exitDy=0;fontColor=#000000;" parent="WIyWlLk6GJQsqaUBKTNV-1" source="Toa8bJAQONpsRSG5JDjS-142" target="Toa8bJAQONpsRSG5JDjS-150" edge="1">
          <mxGeometry relative="1" as="geometry" />
        </mxCell>
        <mxCell id="Toa8bJAQONpsRSG5JDjS-142" value="篡改地址、方法" style="whiteSpace=wrap;html=1;dashed=1;dashPattern=1 1;fontColor=#000000;" parent="WIyWlLk6GJQsqaUBKTNV-1" vertex="1">
          <mxGeometry x="605" y="2555" width="75" height="50" as="geometry" />
        </mxCell>
        <mxCell id="Toa8bJAQONpsRSG5JDjS-147" value="" style="edgeStyle=orthogonalEdgeStyle;rounded=0;orthogonalLoop=1;jettySize=auto;html=1;fontColor=#000000;startArrow=none;" parent="WIyWlLk6GJQsqaUBKTNV-1" source="coyyOgCqXM8ooxdJUqRu-86" target="Toa8bJAQONpsRSG5JDjS-146" edge="1">
          <mxGeometry relative="1" as="geometry" />
        </mxCell>
        <mxCell id="coyyOgCqXM8ooxdJUqRu-88" style="edgeStyle=orthogonalEdgeStyle;rounded=0;orthogonalLoop=1;jettySize=auto;html=1;exitX=1;exitY=0.5;exitDx=0;exitDy=0;entryX=0;entryY=0.5;entryDx=0;entryDy=0;fontColor=#000000;" edge="1" parent="WIyWlLk6GJQsqaUBKTNV-1" source="Toa8bJAQONpsRSG5JDjS-144" target="coyyOgCqXM8ooxdJUqRu-86">
          <mxGeometry relative="1" as="geometry" />
        </mxCell>
        <mxCell id="Toa8bJAQONpsRSG5JDjS-144" value="mock入参" style="whiteSpace=wrap;html=1;dashed=1;dashPattern=1 1;fontColor=#000000;" parent="WIyWlLk6GJQsqaUBKTNV-1" vertex="1">
          <mxGeometry x="600" y="2715" width="75" height="50" as="geometry" />
        </mxCell>
        <mxCell id="Toa8bJAQONpsRSG5JDjS-155" value="" style="edgeStyle=orthogonalEdgeStyle;rounded=0;orthogonalLoop=1;jettySize=auto;html=1;fontColor=#000000;" parent="WIyWlLk6GJQsqaUBKTNV-1" source="Toa8bJAQONpsRSG5JDjS-146" target="Toa8bJAQONpsRSG5JDjS-154" edge="1">
          <mxGeometry relative="1" as="geometry" />
        </mxCell>
        <mxCell id="Toa8bJAQONpsRSG5JDjS-146" value="5、产出调试报告，同步前端变更。入参变更提bug，出参变更提需求" style="whiteSpace=wrap;html=1;dashed=1;dashPattern=1 1;fontColor=#000000;" parent="WIyWlLk6GJQsqaUBKTNV-1" vertex="1">
          <mxGeometry x="860" y="2590" width="110" height="80" as="geometry" />
        </mxCell>
        <mxCell id="Toa8bJAQONpsRSG5JDjS-152" style="edgeStyle=orthogonalEdgeStyle;rounded=0;orthogonalLoop=1;jettySize=auto;html=1;exitX=0.5;exitY=1;exitDx=0;exitDy=0;entryX=0.5;entryY=0;entryDx=0;entryDy=0;fontColor=#000000;" parent="WIyWlLk6GJQsqaUBKTNV-1" source="Toa8bJAQONpsRSG5JDjS-150" target="Toa8bJAQONpsRSG5JDjS-138" edge="1">
          <mxGeometry relative="1" as="geometry" />
        </mxCell>
        <mxCell id="Toa8bJAQONpsRSG5JDjS-153" style="edgeStyle=orthogonalEdgeStyle;rounded=0;orthogonalLoop=1;jettySize=auto;html=1;exitX=1;exitY=0.5;exitDx=0;exitDy=0;entryX=0;entryY=0.5;entryDx=0;entryDy=0;fontColor=#000000;" parent="WIyWlLk6GJQsqaUBKTNV-1" source="Toa8bJAQONpsRSG5JDjS-150" target="Toa8bJAQONpsRSG5JDjS-146" edge="1">
          <mxGeometry relative="1" as="geometry" />
        </mxCell>
        <mxCell id="Toa8bJAQONpsRSG5JDjS-150" value="接口调用是否符合预期" style="rhombus;whiteSpace=wrap;html=1;dashed=1;dashPattern=1 1;fontColor=#000000;" parent="WIyWlLk6GJQsqaUBKTNV-1" vertex="1">
          <mxGeometry x="730" y="2550" width="80" height="60" as="geometry" />
        </mxCell>
        <mxCell id="Toa8bJAQONpsRSG5JDjS-157" value="4、后端自助自主调试" style="swimlane;horizontal=0;dashed=1;dashPattern=1 1;fontColor=#000000;align=center;verticalAlign=middle;" parent="WIyWlLk6GJQsqaUBKTNV-1" vertex="1">
          <mxGeometry x="380" y="2405" width="1050" height="655" as="geometry" />
        </mxCell>
        <mxCell id="Toa8bJAQONpsRSG5JDjS-158" value="&lt;h1&gt;高效接口自主自助调试&lt;/h1&gt;&lt;p&gt;&lt;b&gt;&lt;font color=&quot;#ff4a08&quot;&gt;高效&lt;/font&gt;入参调试&lt;/b&gt;：当接口入参不符合预期，服务端可基于工具进行入参调试。避免原有的前后端接口联调串行调试，不阻塞服务端开发，保障接口功能完备。产出变更文档。&lt;/p&gt;&lt;p&gt;&lt;b&gt;出参调试&lt;/b&gt;：当接口后期上线时出参与接口文档不一致时，服务端可在工具变更出参，并产出变更文档。&lt;/p&gt;&lt;p&gt;&lt;b&gt;&lt;font color=&quot;#ff4a08&quot;&gt;高效&lt;/font&gt;反馈&lt;/b&gt;：基于工具产出接口变更文档，高效同步前端变更内容。&lt;/p&gt;&lt;p&gt;&lt;font color=&quot;#ff0f0f&quot;&gt;&lt;b&gt;避免低效联调&lt;/b&gt;&lt;/font&gt;：调试过程中发现问题经过aone反馈，前端更新代码，避免低效联调，过程问题跟踪落aone，可复盘。&lt;/p&gt;" style="text;html=1;strokeColor=none;fillColor=none;spacing=5;spacingTop=-20;whiteSpace=wrap;overflow=hidden;rounded=0;dashed=1;dashPattern=1 1;fontColor=#000000;align=left;verticalAlign=top;" parent="Toa8bJAQONpsRSG5JDjS-157" vertex="1">
          <mxGeometry x="639" y="15" width="391" height="195" as="geometry" />
        </mxCell>
        <mxCell id="Toa8bJAQONpsRSG5JDjS-134" value="页面调试" style="whiteSpace=wrap;html=1;dashed=1;dashPattern=1 1;fontColor=#000000;" parent="Toa8bJAQONpsRSG5JDjS-157" vertex="1">
          <mxGeometry x="64" y="55" width="120" height="60" as="geometry" />
        </mxCell>
        <mxCell id="Toa8bJAQONpsRSG5JDjS-154" value="6. 前端代码调整" style="whiteSpace=wrap;html=1;dashed=1;dashPattern=1 1;fontColor=#000000;" parent="Toa8bJAQONpsRSG5JDjS-157" vertex="1">
          <mxGeometry x="474" y="55" width="120" height="60" as="geometry" />
        </mxCell>
        <mxCell id="Toa8bJAQONpsRSG5JDjS-156" style="edgeStyle=orthogonalEdgeStyle;rounded=0;orthogonalLoop=1;jettySize=auto;html=1;exitX=0;exitY=0.5;exitDx=0;exitDy=0;entryX=1;entryY=0.5;entryDx=0;entryDy=0;fontColor=#000000;" parent="Toa8bJAQONpsRSG5JDjS-157" source="Toa8bJAQONpsRSG5JDjS-154" target="Toa8bJAQONpsRSG5JDjS-134" edge="1">
          <mxGeometry relative="1" as="geometry" />
        </mxCell>
        <mxCell id="coyyOgCqXM8ooxdJUqRu-72" value="&lt;font color=&quot;#000000&quot;&gt;3.安装插件&lt;/font&gt;" style="text;html=1;strokeColor=none;fillColor=none;align=center;verticalAlign=middle;whiteSpace=wrap;rounded=0;fontColor=#FF0F0F;" vertex="1" parent="Toa8bJAQONpsRSG5JDjS-157">
          <mxGeometry x="134" y="5" width="60" height="30" as="geometry" />
        </mxCell>
        <mxCell id="coyyOgCqXM8ooxdJUqRu-75" value="4.3 前端字段名结构是否符合预期" style="rhombus;whiteSpace=wrap;html=1;dashed=1;dashPattern=1 1;fontColor=#000000;" vertex="1" parent="Toa8bJAQONpsRSG5JDjS-157">
          <mxGeometry x="90" y="415" width="80" height="60" as="geometry" />
        </mxCell>
        <mxCell id="coyyOgCqXM8ooxdJUqRu-77" value="4.4 后端出参是否符合前端要求" style="rhombus;whiteSpace=wrap;html=1;dashed=1;dashPattern=1 1;fontColor=#000000;" vertex="1" parent="Toa8bJAQONpsRSG5JDjS-157">
          <mxGeometry x="90" y="575" width="80" height="60" as="geometry" />
        </mxCell>
        <mxCell id="coyyOgCqXM8ooxdJUqRu-73" value="" style="edgeStyle=orthogonalEdgeStyle;rounded=0;orthogonalLoop=1;jettySize=auto;html=1;fontColor=#000000;" edge="1" parent="Toa8bJAQONpsRSG5JDjS-157" source="coyyOgCqXM8ooxdJUqRu-75" target="coyyOgCqXM8ooxdJUqRu-77">
          <mxGeometry relative="1" as="geometry" />
        </mxCell>
        <mxCell id="coyyOgCqXM8ooxdJUqRu-79" value="篡改字段名、结构" style="whiteSpace=wrap;html=1;dashed=1;dashPattern=1 1;fontColor=#000000;" vertex="1" parent="Toa8bJAQONpsRSG5JDjS-157">
          <mxGeometry x="230" y="420" width="75" height="50" as="geometry" />
        </mxCell>
        <mxCell id="coyyOgCqXM8ooxdJUqRu-74" value="" style="edgeStyle=orthogonalEdgeStyle;rounded=0;orthogonalLoop=1;jettySize=auto;html=1;fontColor=#000000;" edge="1" parent="Toa8bJAQONpsRSG5JDjS-157" source="coyyOgCqXM8ooxdJUqRu-75" target="coyyOgCqXM8ooxdJUqRu-79">
          <mxGeometry relative="1" as="geometry" />
        </mxCell>
        <mxCell id="coyyOgCqXM8ooxdJUqRu-81" value="修改出参" style="whiteSpace=wrap;html=1;dashed=1;dashPattern=1 1;fontColor=#000000;" vertex="1" parent="Toa8bJAQONpsRSG5JDjS-157">
          <mxGeometry x="225" y="580" width="75" height="50" as="geometry" />
        </mxCell>
        <mxCell id="coyyOgCqXM8ooxdJUqRu-76" style="edgeStyle=orthogonalEdgeStyle;rounded=0;orthogonalLoop=1;jettySize=auto;html=1;exitX=1;exitY=0.5;exitDx=0;exitDy=0;entryX=0;entryY=0.5;entryDx=0;entryDy=0;fontColor=#000000;" edge="1" parent="Toa8bJAQONpsRSG5JDjS-157" source="coyyOgCqXM8ooxdJUqRu-77" target="coyyOgCqXM8ooxdJUqRu-81">
          <mxGeometry relative="1" as="geometry" />
        </mxCell>
        <mxCell id="coyyOgCqXM8ooxdJUqRu-83" style="edgeStyle=orthogonalEdgeStyle;rounded=0;orthogonalLoop=1;jettySize=auto;html=1;exitX=0.5;exitY=1;exitDx=0;exitDy=0;entryX=0.5;entryY=0;entryDx=0;entryDy=0;fontColor=#000000;" edge="1" parent="Toa8bJAQONpsRSG5JDjS-157" source="coyyOgCqXM8ooxdJUqRu-85" target="coyyOgCqXM8ooxdJUqRu-81">
          <mxGeometry relative="1" as="geometry" />
        </mxCell>
        <mxCell id="coyyOgCqXM8ooxdJUqRu-84" style="edgeStyle=orthogonalEdgeStyle;rounded=0;orthogonalLoop=1;jettySize=auto;html=1;exitX=1;exitY=0.5;exitDx=0;exitDy=0;fontColor=#000000;" edge="1" parent="Toa8bJAQONpsRSG5JDjS-157" source="coyyOgCqXM8ooxdJUqRu-85">
          <mxGeometry relative="1" as="geometry">
            <mxPoint x="530" y="265" as="targetPoint" />
          </mxGeometry>
        </mxCell>
        <mxCell id="coyyOgCqXM8ooxdJUqRu-85" value="页面功能是否符合预期" style="rhombus;whiteSpace=wrap;html=1;dashed=1;dashPattern=1 1;fontColor=#000000;" vertex="1" parent="Toa8bJAQONpsRSG5JDjS-157">
          <mxGeometry x="355" y="415" width="80" height="60" as="geometry" />
        </mxCell>
        <mxCell id="coyyOgCqXM8ooxdJUqRu-78" style="edgeStyle=orthogonalEdgeStyle;rounded=0;orthogonalLoop=1;jettySize=auto;html=1;exitX=1;exitY=0.5;exitDx=0;exitDy=0;fontColor=#000000;" edge="1" parent="Toa8bJAQONpsRSG5JDjS-157" source="coyyOgCqXM8ooxdJUqRu-79" target="coyyOgCqXM8ooxdJUqRu-85">
          <mxGeometry relative="1" as="geometry" />
        </mxCell>
        <mxCell id="Toa8bJAQONpsRSG5JDjS-159" value="2.前端交付验收" style="swimlane;horizontal=0;dashed=1;dashPattern=1 1;fontColor=#000000;align=center;verticalAlign=middle;" parent="WIyWlLk6GJQsqaUBKTNV-1" vertex="1">
          <mxGeometry x="381" y="2210" width="1049" height="195" as="geometry" />
        </mxCell>
        <mxCell id="Toa8bJAQONpsRSG5JDjS-160" value="&lt;h1&gt;前端交付验收&lt;/h1&gt;&lt;p&gt;正式同学发起交付验收，项目PM拉齐接口相关同学一同验收前端页面验收文档。冒烟页面所有功能，完成验收。&lt;/p&gt;&lt;p&gt;交互可前置参与页面还原度验收。&lt;/p&gt;" style="text;html=1;strokeColor=none;fillColor=none;spacing=5;spacingTop=-20;whiteSpace=wrap;overflow=hidden;rounded=0;dashed=1;dashPattern=1 1;fontColor=#000000;align=left;verticalAlign=top;" parent="Toa8bJAQONpsRSG5JDjS-159" vertex="1">
          <mxGeometry x="639" y="15" width="391" height="155" as="geometry" />
        </mxCell>
        <mxCell id="Toa8bJAQONpsRSG5JDjS-166" style="edgeStyle=orthogonalEdgeStyle;rounded=0;orthogonalLoop=1;jettySize=auto;html=1;exitX=0.5;exitY=1;exitDx=0;exitDy=0;entryX=0.5;entryY=0;entryDx=0;entryDy=0;fontColor=#FF0F0F;" parent="WIyWlLk6GJQsqaUBKTNV-1" source="Toa8bJAQONpsRSG5JDjS-164" target="Toa8bJAQONpsRSG5JDjS-165" edge="1">
          <mxGeometry relative="1" as="geometry" />
        </mxCell>
        <mxCell id="Toa8bJAQONpsRSG5JDjS-164" value="完成页面开发" style="rounded=1;whiteSpace=wrap;html=1;dashed=1;dashPattern=1 1;fontColor=#000000;align=center;verticalAlign=middle;" parent="WIyWlLk6GJQsqaUBKTNV-1" vertex="1">
          <mxGeometry x="1320" y="1750" width="170" height="30" as="geometry" />
        </mxCell>
        <mxCell id="Toa8bJAQONpsRSG5JDjS-170" style="edgeStyle=orthogonalEdgeStyle;rounded=0;orthogonalLoop=1;jettySize=auto;html=1;exitX=0.5;exitY=1;exitDx=0;exitDy=0;entryX=0.5;entryY=0;entryDx=0;entryDy=0;fontColor=#FF0F0F;" parent="WIyWlLk6GJQsqaUBKTNV-1" source="Toa8bJAQONpsRSG5JDjS-165" target="Toa8bJAQONpsRSG5JDjS-169" edge="1">
          <mxGeometry relative="1" as="geometry" />
        </mxCell>
        <mxCell id="Toa8bJAQONpsRSG5JDjS-165" value="完成需求开发" style="rounded=1;whiteSpace=wrap;html=1;dashed=1;dashPattern=1 1;fontColor=#000000;align=center;verticalAlign=middle;" parent="WIyWlLk6GJQsqaUBKTNV-1" vertex="1">
          <mxGeometry x="1320" y="1800" width="170" height="30" as="geometry" />
        </mxCell>
        <mxCell id="coyyOgCqXM8ooxdJUqRu-62" style="edgeStyle=orthogonalEdgeStyle;rounded=0;orthogonalLoop=1;jettySize=auto;html=1;exitX=0.5;exitY=1;exitDx=0;exitDy=0;entryX=0.5;entryY=0;entryDx=0;entryDy=0;fontColor=#FF0F0F;" edge="1" parent="WIyWlLk6GJQsqaUBKTNV-1" source="Toa8bJAQONpsRSG5JDjS-169" target="coyyOgCqXM8ooxdJUqRu-61">
          <mxGeometry relative="1" as="geometry" />
        </mxCell>
        <mxCell id="Toa8bJAQONpsRSG5JDjS-169" value="5、完成自测，产出测试报告" style="rounded=1;whiteSpace=wrap;html=1;dashed=1;dashPattern=1 1;fontColor=#000000;align=center;verticalAlign=middle;" parent="WIyWlLk6GJQsqaUBKTNV-1" vertex="1">
          <mxGeometry x="1320" y="1850" width="170" height="30" as="geometry" />
        </mxCell>
        <mxCell id="Toa8bJAQONpsRSG5JDjS-43" value="冒烟，提测" style="rounded=1;whiteSpace=wrap;html=1;dashed=1;dashPattern=1 1;align=center;" parent="WIyWlLk6GJQsqaUBKTNV-1" vertex="1">
          <mxGeometry x="170" y="1180" width="700" height="45" as="geometry" />
        </mxCell>
        <mxCell id="coyyOgCqXM8ooxdJUqRu-2" style="edgeStyle=orthogonalEdgeStyle;rounded=0;orthogonalLoop=1;jettySize=auto;html=1;exitX=0.5;exitY=1;exitDx=0;exitDy=0;entryX=0.5;entryY=0;entryDx=0;entryDy=0;" edge="1" parent="WIyWlLk6GJQsqaUBKTNV-1" source="Toa8bJAQONpsRSG5JDjS-20" target="coyyOgCqXM8ooxdJUqRu-0">
          <mxGeometry relative="1" as="geometry">
            <Array as="points">
              <mxPoint x="710" y="460" />
              <mxPoint x="380" y="460" />
            </Array>
          </mxGeometry>
        </mxCell>
        <mxCell id="coyyOgCqXM8ooxdJUqRu-4" style="edgeStyle=orthogonalEdgeStyle;rounded=0;orthogonalLoop=1;jettySize=auto;html=1;exitX=0;exitY=0.5;exitDx=0;exitDy=0;entryX=0.5;entryY=0;entryDx=0;entryDy=0;" edge="1" parent="WIyWlLk6GJQsqaUBKTNV-1" source="Toa8bJAQONpsRSG5JDjS-6" target="Toa8bJAQONpsRSG5JDjS-7">
          <mxGeometry relative="1" as="geometry" />
        </mxCell>
        <mxCell id="coyyOgCqXM8ooxdJUqRu-9" style="edgeStyle=orthogonalEdgeStyle;rounded=0;orthogonalLoop=1;jettySize=auto;html=1;exitX=1;exitY=0.5;exitDx=0;exitDy=0;entryX=0.5;entryY=0;entryDx=0;entryDy=0;" edge="1" parent="WIyWlLk6GJQsqaUBKTNV-1" source="coyyOgCqXM8ooxdJUqRu-5" target="coyyOgCqXM8ooxdJUqRu-8">
          <mxGeometry relative="1" as="geometry" />
        </mxCell>
        <mxCell id="coyyOgCqXM8ooxdJUqRu-21" style="edgeStyle=orthogonalEdgeStyle;rounded=0;orthogonalLoop=1;jettySize=auto;html=1;exitX=0.5;exitY=1;exitDx=0;exitDy=0;" edge="1" parent="WIyWlLk6GJQsqaUBKTNV-1" source="coyyOgCqXM8ooxdJUqRu-18" target="Toa8bJAQONpsRSG5JDjS-43">
          <mxGeometry relative="1" as="geometry" />
        </mxCell>
        <mxCell id="coyyOgCqXM8ooxdJUqRu-18" value="校验" style="rounded=1;whiteSpace=wrap;html=1;" vertex="1" parent="WIyWlLk6GJQsqaUBKTNV-1">
          <mxGeometry x="485" y="1080" width="110" height="50" as="geometry" />
        </mxCell>
        <mxCell id="coyyOgCqXM8ooxdJUqRu-20" style="edgeStyle=orthogonalEdgeStyle;rounded=0;orthogonalLoop=1;jettySize=auto;html=1;exitX=0;exitY=0.5;exitDx=0;exitDy=0;entryX=0;entryY=0.5;entryDx=0;entryDy=0;" edge="1" parent="WIyWlLk6GJQsqaUBKTNV-1" source="coyyOgCqXM8ooxdJUqRu-5" target="coyyOgCqXM8ooxdJUqRu-18">
          <mxGeometry relative="1" as="geometry">
            <Array as="points">
              <mxPoint x="280" y="795" />
              <mxPoint x="280" y="1105" />
            </Array>
          </mxGeometry>
        </mxCell>
        <mxCell id="coyyOgCqXM8ooxdJUqRu-23" style="edgeStyle=orthogonalEdgeStyle;rounded=0;orthogonalLoop=1;jettySize=auto;html=1;exitX=0;exitY=0.5;exitDx=0;exitDy=0;entryX=0.5;entryY=0;entryDx=0;entryDy=0;" edge="1" parent="WIyWlLk6GJQsqaUBKTNV-1" source="coyyOgCqXM8ooxdJUqRu-10" target="coyyOgCqXM8ooxdJUqRu-22">
          <mxGeometry relative="1" as="geometry" />
        </mxCell>
        <mxCell id="coyyOgCqXM8ooxdJUqRu-24" style="edgeStyle=orthogonalEdgeStyle;rounded=0;orthogonalLoop=1;jettySize=auto;html=1;exitX=0.5;exitY=1;exitDx=0;exitDy=0;" edge="1" parent="WIyWlLk6GJQsqaUBKTNV-1" source="coyyOgCqXM8ooxdJUqRu-22">
          <mxGeometry relative="1" as="geometry">
            <mxPoint x="375.47058823529414" y="1050" as="targetPoint" />
          </mxGeometry>
        </mxCell>
        <mxCell id="coyyOgCqXM8ooxdJUqRu-45" style="edgeStyle=orthogonalEdgeStyle;rounded=0;orthogonalLoop=1;jettySize=auto;html=1;exitX=0.5;exitY=1;exitDx=0;exitDy=0;entryX=0.643;entryY=-0.042;entryDx=0;entryDy=0;entryPerimeter=0;" edge="1" parent="WIyWlLk6GJQsqaUBKTNV-1" source="coyyOgCqXM8ooxdJUqRu-10" target="Toa8bJAQONpsRSG5JDjS-43">
          <mxGeometry relative="1" as="geometry">
            <Array as="points">
              <mxPoint x="545" y="990" />
              <mxPoint x="620" y="990" />
            </Array>
          </mxGeometry>
        </mxCell>
        <mxCell id="coyyOgCqXM8ooxdJUqRu-50" value="1." style="text;html=1;strokeColor=none;fillColor=none;align=center;verticalAlign=middle;whiteSpace=wrap;rounded=0;dashed=1;dashPattern=1 1;" vertex="1" parent="WIyWlLk6GJQsqaUBKTNV-1">
          <mxGeometry x="1285" y="240" width="60" height="30" as="geometry" />
        </mxCell>
        <mxCell id="coyyOgCqXM8ooxdJUqRu-51" value="1." style="text;html=1;strokeColor=none;fillColor=none;align=center;verticalAlign=middle;whiteSpace=wrap;rounded=0;dashed=1;dashPattern=1 1;" vertex="1" parent="WIyWlLk6GJQsqaUBKTNV-1">
          <mxGeometry x="1475" y="100" width="60" height="30" as="geometry" />
        </mxCell>
        <mxCell id="coyyOgCqXM8ooxdJUqRu-52" value="" style="edgeStyle=orthogonalEdgeStyle;rounded=0;orthogonalLoop=1;jettySize=auto;html=1;fontColor=#000000;" edge="1" parent="WIyWlLk6GJQsqaUBKTNV-1" source="coyyOgCqXM8ooxdJUqRu-53" target="coyyOgCqXM8ooxdJUqRu-54">
          <mxGeometry relative="1" as="geometry" />
        </mxCell>
        <mxCell id="coyyOgCqXM8ooxdJUqRu-59" style="edgeStyle=orthogonalEdgeStyle;rounded=0;orthogonalLoop=1;jettySize=auto;html=1;exitX=1;exitY=0.5;exitDx=0;exitDy=0;entryX=0.5;entryY=0;entryDx=0;entryDy=0;fontColor=#FF0F0F;" edge="1" parent="WIyWlLk6GJQsqaUBKTNV-1" source="coyyOgCqXM8ooxdJUqRu-53" target="Toa8bJAQONpsRSG5JDjS-116">
          <mxGeometry relative="1" as="geometry">
            <Array as="points">
              <mxPoint x="1520" y="880" />
              <mxPoint x="1520" y="1030" />
              <mxPoint x="1415" y="1030" />
            </Array>
          </mxGeometry>
        </mxCell>
        <mxCell id="coyyOgCqXM8ooxdJUqRu-53" value="接口是否存在多种场景" style="rhombus;whiteSpace=wrap;html=1;dashed=1;dashPattern=1 1;fontColor=#000000;align=center;verticalAlign=middle;" vertex="1" parent="WIyWlLk6GJQsqaUBKTNV-1">
          <mxGeometry x="1330" y="850" width="170" height="60" as="geometry" />
        </mxCell>
        <mxCell id="coyyOgCqXM8ooxdJUqRu-58" style="edgeStyle=orthogonalEdgeStyle;rounded=0;orthogonalLoop=1;jettySize=auto;html=1;exitX=0.5;exitY=1;exitDx=0;exitDy=0;entryX=0.5;entryY=0;entryDx=0;entryDy=0;fontColor=#FF0F0F;" edge="1" parent="WIyWlLk6GJQsqaUBKTNV-1" source="coyyOgCqXM8ooxdJUqRu-54" target="Toa8bJAQONpsRSG5JDjS-116">
          <mxGeometry relative="1" as="geometry" />
        </mxCell>
        <mxCell id="coyyOgCqXM8ooxdJUqRu-54" value="针对特定场景创建响应数据" style="whiteSpace=wrap;html=1;dashed=1;dashPattern=1 1;fontColor=#000000;" vertex="1" parent="WIyWlLk6GJQsqaUBKTNV-1">
          <mxGeometry x="1355" y="940" width="120" height="60" as="geometry" />
        </mxCell>
        <mxCell id="coyyOgCqXM8ooxdJUqRu-55" value="4.2 支持接口的多种场景模拟" style="swimlane;horizontal=0;dashed=1;dashPattern=1 1;fontColor=#000000;align=center;verticalAlign=middle;" vertex="1" parent="WIyWlLk6GJQsqaUBKTNV-1">
          <mxGeometry x="1180" y="840" width="990" height="210" as="geometry" />
        </mxCell>
        <mxCell id="coyyOgCqXM8ooxdJUqRu-56" value="&lt;h1&gt;&lt;span style=&quot;font-size: 12px&quot;&gt;支持多种场景的模拟如：正常列表数据返回，空列表数据返回，接口异常报错返回。接口ab测试返回。&lt;/span&gt;&lt;/h1&gt;" style="text;html=1;strokeColor=none;fillColor=none;spacing=5;spacingTop=-20;whiteSpace=wrap;overflow=hidden;rounded=0;dashed=1;dashPattern=1 1;fontColor=#000000;align=left;verticalAlign=top;" vertex="1" parent="coyyOgCqXM8ooxdJUqRu-55">
          <mxGeometry x="460" y="15" width="490" height="195" as="geometry" />
        </mxCell>
        <mxCell id="coyyOgCqXM8ooxdJUqRu-65" style="edgeStyle=orthogonalEdgeStyle;rounded=0;orthogonalLoop=1;jettySize=auto;html=1;exitX=0.5;exitY=1;exitDx=0;exitDy=0;entryX=0.5;entryY=0;entryDx=0;entryDy=0;fontColor=#FF0F0F;" edge="1" parent="WIyWlLk6GJQsqaUBKTNV-1" source="coyyOgCqXM8ooxdJUqRu-61" target="coyyOgCqXM8ooxdJUqRu-63">
          <mxGeometry relative="1" as="geometry" />
        </mxCell>
        <mxCell id="coyyOgCqXM8ooxdJUqRu-61" value="6、产出交付文档" style="rounded=1;whiteSpace=wrap;html=1;dashed=1;dashPattern=1 1;fontColor=#000000;align=center;verticalAlign=middle;" vertex="1" parent="WIyWlLk6GJQsqaUBKTNV-1">
          <mxGeometry x="1320" y="1900" width="170" height="30" as="geometry" />
        </mxCell>
        <mxCell id="coyyOgCqXM8ooxdJUqRu-66" style="edgeStyle=orthogonalEdgeStyle;rounded=0;orthogonalLoop=1;jettySize=auto;html=1;exitX=0.5;exitY=1;exitDx=0;exitDy=0;entryX=0.5;entryY=0;entryDx=0;entryDy=0;fontColor=#FF0F0F;" edge="1" parent="WIyWlLk6GJQsqaUBKTNV-1" source="coyyOgCqXM8ooxdJUqRu-63" target="coyyOgCqXM8ooxdJUqRu-64">
          <mxGeometry relative="1" as="geometry" />
        </mxCell>
        <mxCell id="coyyOgCqXM8ooxdJUqRu-63" value="7、前端交付验收：&lt;br&gt;7.1 功能视觉验收&lt;br&gt;7.2 出入参验收&lt;br&gt;7.3 代码cr" style="rounded=1;whiteSpace=wrap;html=1;dashed=1;dashPattern=1 1;fontColor=#000000;align=left;verticalAlign=middle;" vertex="1" parent="WIyWlLk6GJQsqaUBKTNV-1">
          <mxGeometry x="1320" y="1950" width="170" height="90" as="geometry" />
        </mxCell>
        <mxCell id="coyyOgCqXM8ooxdJUqRu-64" value="8、前端标准产出：页面、自测报告、交付文档" style="rounded=1;whiteSpace=wrap;html=1;dashed=1;dashPattern=1 1;fontColor=#000000;align=center;verticalAlign=middle;" vertex="1" parent="WIyWlLk6GJQsqaUBKTNV-1">
          <mxGeometry x="1320" y="2060" width="170" height="30" as="geometry" />
        </mxCell>
        <mxCell id="coyyOgCqXM8ooxdJUqRu-67" value="功能验收、接口出入参验收" style="rounded=1;whiteSpace=wrap;html=1;dashed=1;dashPattern=1 1;fontColor=#000000;align=center;verticalAlign=middle;" vertex="1" parent="WIyWlLk6GJQsqaUBKTNV-1">
          <mxGeometry x="430" y="2240" width="170" height="30" as="geometry" />
        </mxCell>
        <mxCell id="coyyOgCqXM8ooxdJUqRu-89" style="edgeStyle=orthogonalEdgeStyle;rounded=0;orthogonalLoop=1;jettySize=auto;html=1;exitX=0.5;exitY=1;exitDx=0;exitDy=0;entryX=0.5;entryY=0;entryDx=0;entryDy=0;fontColor=#000000;" edge="1" parent="WIyWlLk6GJQsqaUBKTNV-1" source="coyyOgCqXM8ooxdJUqRu-86" target="coyyOgCqXM8ooxdJUqRu-75">
          <mxGeometry relative="1" as="geometry" />
        </mxCell>
        <mxCell id="coyyOgCqXM8ooxdJUqRu-86" value="后端出参是否符合前端要求" style="rhombus;whiteSpace=wrap;html=1;dashed=1;dashPattern=1 1;fontColor=#000000;" vertex="1" parent="WIyWlLk6GJQsqaUBKTNV-1">
          <mxGeometry x="735" y="2710" width="80" height="60" as="geometry" />
        </mxCell>
        <mxCell id="coyyOgCqXM8ooxdJUqRu-80" value="" style="edgeStyle=orthogonalEdgeStyle;rounded=0;orthogonalLoop=1;jettySize=auto;html=1;fontColor=#000000;entryX=0.5;entryY=1;entryDx=0;entryDy=0;" edge="1" parent="WIyWlLk6GJQsqaUBKTNV-1" source="coyyOgCqXM8ooxdJUqRu-81" target="Toa8bJAQONpsRSG5JDjS-146">
          <mxGeometry relative="1" as="geometry">
            <mxPoint x="920" y="2940" as="targetPoint" />
          </mxGeometry>
        </mxCell>
        <mxCell id="coyyOgCqXM8ooxdJUqRu-91" style="edgeStyle=orthogonalEdgeStyle;rounded=0;orthogonalLoop=1;jettySize=auto;html=1;exitX=0.5;exitY=1;exitDx=0;exitDy=0;entryX=0.5;entryY=0;entryDx=0;entryDy=0;fontColor=#000000;" edge="1" parent="WIyWlLk6GJQsqaUBKTNV-1" source="coyyOgCqXM8ooxdJUqRu-77" target="Toa8bJAQONpsRSG5JDjS-140">
          <mxGeometry relative="1" as="geometry" />
        </mxCell>
      </root>
    </mxGraphModel>
  </diagram>
</mxfile>
